<?xml version="1.0" encoding="utf-8"?>
<!-- Generator: Adobe Illustrator 16.0.0, SVG Export Plug-In . SVG Version: 6.00 Build 0)  -->
<!DOCTYPE svg PUBLIC "-//W3C//DTD SVG 1.1//EN" "http://www.w3.org/Graphics/SVG/1.1/DTD/svg11.dtd">
<svg version="1.1" id="Layer_1" xmlns="http://www.w3.org/2000/svg" xmlns:xlink="http://www.w3.org/1999/xlink" x="0px" y="0px"
	 width="20px" height="20px" viewBox="0 0 20 20" enable-background="new 0 0 20 20" xml:space="preserve">
<g>
	<polygon fill-rule="evenodd" clip-rule="evenodd" fill="#DCDDDE" points="-114,72.012 -113.768,73.057 -96.261,90.91 
		-92.551,93.637 -114,72.012 	"/>
	<path fill-rule="evenodd" clip-rule="evenodd" fill="#DCDDDE" d="M-101.941,72.129c0,0,2.007,2.703,2.471,3.631
		c0.463,0.928,0.892,2.008,0.892,2.008l11.27,11.643c0,0,0.131-0.217,4.015,2.855c3.884,3.072,5.799,4.803,5.799,4.803
		s-4.142-5.344-9.725-10.824C-93.716,79.865-101.941,72.129-101.941,72.129L-101.941,72.129z"/>
	<path fill-rule="evenodd" clip-rule="evenodd" fill="#DCDDDE" d="M-88.958,72.117c0,0,4.148,4.98,4.595,5.873
		c0.446,0.893,0.401,0.982,0.401,0.982l12.832,13.74c0,0,0.937-0.105,1.65,0.385c0.714,0.49,8.074,6.469,8.074,6.469
		s-5.174-6.217-5.442-6.646c-0.268-0.432,0.044-0.787,0.044-0.787L-88.958,72.117L-88.958,72.117z"/>
	<path fill-rule="evenodd" clip-rule="evenodd" fill="#DCDDDE" d="M-75.621,72.252c0,0,2.588,3.82,3.034,4.49
		c0.446,0.668,0.653,1.293,0.653,1.293l13.784,15.152c0,0,1.111-0.041,2.097,0.49c1.16,0.625,7.88,5.889,7.88,5.889
		s-4.461-5.727-4.773-6.514s0.045-1.1,0.045-1.1l-14.705-13.428c0,0-0.893-0.223-1.74-0.891
		C-70.194,76.965-75.621,72.252-75.621,72.252L-75.621,72.252z"/>
	<path fill="#DCDDDE" d="M-63.235,71.494c0,0,1.427,2.795,4.595,6.408c3.907,4.457,13.054,14.363,13.054,14.363
		s0.778-0.203,1.25,0.135c0.625,0.445,9.323,7.299,9.323,7.299s-5.264-7.479-5.576-8.059s-0.089-1.203-0.089-1.203
		S-55.562,76.83-56.008,76.43c-0.446-0.402-1.293-0.49-1.293-0.49l-1.785-1.992l-1.74-0.045L-63.235,71.494L-63.235,71.494z"/>
	<path fill="#DCDDDE" d="M-55.696,65.873c0,0,7.657,10.021,8.772,11.449c1.115,1.426,11.911,12.49,11.911,12.49
		s1.055-0.135,1.724,0.268c0.669,0.402,7.896,6.051,7.896,6.051s-4.372-6.453-4.595-7.033c-0.223-0.578,0.089-1.383,0.089-1.383
		S-39.295,78.525-40.5,77.41s-4.015-3.063-6.022-4.756c-2.007-1.695-4.789-3.346-6.334-4.461
		C-54.402,67.076-55.696,65.873-55.696,65.873L-55.696,65.873z"/>
	<path fill="#DCDDDE" d="M-47.236,61.5c0,0,6.29,8.031,7.093,9.191c0.803,1.158,7.657,8.906,9.486,10.512s5.041,4.729,5.041,4.729
		s1.205-0.447,1.517-0.357c0.312,0.09,7.717,6.291,7.717,6.291s-5.219-7.316-5.397-7.629c-0.179-0.313,0.892-0.803,0.892-0.803
		s-5.13-5.369-9.323-9.057c-4.193-3.686-6.987-6.006-7.523-6.408c-0.535-0.4-0.491-0.088-1.204-0.623
		c-0.714-0.537-2.587-2.053-3.703-2.633c-1.116-0.58-1.472-0.67-2.23-1.205S-47.236,61.5-47.236,61.5L-47.236,61.5z"/>
	<path fill-rule="evenodd" clip-rule="evenodd" fill="#DCDDDE" d="M-40.277,54.959c0,0,4.209,4.58,4.997,5.561
		c0.787,0.98,0.43,1.695,2.036,3.658c1.606,1.963,3.078,4.283,6.067,7.316s8.966,8.682,9.279,8.949
		c0.312,0.268,0.774-0.758,1.472-0.49s6.987,6.023,6.987,6.023s-1.813-2.096-2.409-2.99c-0.714-1.07-2.364-4.906-2.498-5.352
		c-0.134-0.447,0.312-0.938,0.178-1.16c-0.134-0.225-9.263-8.818-11.627-11.092c-2.365-2.275-5.978-4.461-8.03-5.488
		c-0.826-0.412-2.438-1.428-2.438-1.428L-40.277,54.959L-40.277,54.959z"/>
	<path fill-rule="evenodd" clip-rule="evenodd" fill="#DCDDDE" d="M-34.271,47.287c0,0,5.71,7.656,6.468,8.594
		c0.759,0.936,3.703,4.461,5.978,7.314c2.275,2.855,10.2,10.59,10.422,10.707c0.223,0.117,0.625,0.045,1.071-0.09
		c0.446-0.133,1.606,0.342,2.944,1.234c1.131,0.754,4.372,3.836,4.372,3.836s-4.505-5.158-5.219-6.186
		c-0.713-1.025-0.892-1.203-0.848-1.383c0.045-0.178,0.937-1.025,0.937-1.248s-9.887-9.637-11.627-11.242s-3.257-2.916-4.907-3.523
		c-1.65-0.609-2.141-0.967-3.39-1.992S-34.271,47.287-34.271,47.287L-34.271,47.287z"/>
	<path fill-rule="evenodd" clip-rule="evenodd" fill="#DCDDDE" d="M-27.312,41.219c0,0,5.264,6.514,5.532,6.871
		c0.268,0.355-0.179,0.98,1.204,2.854c1.383,1.875,8.683,9.889,11.092,12.209c2.409,2.318,3.346,3.389,3.658,3.434
		c0.312,0.045,1.293-0.98,1.293-0.98s3.346,2.588,4.149,3.256c0.803,0.67,1.784,1.473,2.498,2.053s1.412,1.115,1.412,1.115
		s-1.606-1.455-2.349-2.23c-0.981-1.027-1.829-2.498-2.453-3.213c-0.456-0.521-1.383-2.275-1.562-2.721
		c-0.179-0.445-0.134-1.473-0.134-1.473s-5.309-5.783-8.476-8.682c-3.167-2.9-6.006-5.621-6.586-6.156
		c-0.58-0.535-1.249-0.447-1.963-0.848C-20.709,46.305-27.312,41.219-27.312,41.219L-27.312,41.219z"/>
	<path fill="#DCDDDE" d="M-23.798,31.869c0,0,4.853,5.287,5.076,5.678s-0.167,0.781-0.111,1.061
		c0.056,0.279,0.446,0.725,0.446,0.725s5.528,7.082,8.323,9.877c2.288,2.287,7.396,7.738,8.065,8.354
		c0.669,0.613,1.188,0.748,1.355,0.691c0.167-0.057,1.043-0.916,1.043-0.916l6.459,5.133l-5.455-7.029c0,0,0.478-0.707,0.401-1.105
		c-0.144-0.748-2.161-2.246-3.774-3.975c-0.753-0.809-3.711-3.721-4.437-4.559c-0.725-0.836-6.705-5.41-8.423-7.027
		c-1.718-1.619-2.841-1.84-2.841-1.84L-23.798,31.869L-23.798,31.869z"/>
	<path fill-rule="evenodd" clip-rule="evenodd" fill="#DCDDDE" d="M12.637,55.084c0,0-4.22-3.881-5.502-4.781
		c-1.354-0.951-2.045-1.268-2.449-1.182c-0.403,0.088-0.749,0.375-1.094,0.346c-0.346-0.027-1.267-1.037-2.42-2.219
		c-1.152-1.18-6.223-6.453-8.815-9.305c-1.138-1.252-1.969-2.463-3.169-3.715c-1.325-1.385-1.642-2.104-2.218-3.486
		c-0.679-1.631-1.269-2.334-2.075-3.141c-0.806-0.807-4.695-5.07-4.695-5.07l7.433,6.252c0,0,5.963,4.898,8.297,6.943
		s4.121,3.629,6.108,5.529c1.987,1.902,3.053,3.227,3.428,3.717s0.058,1.729,0.23,2.162C5.867,47.566,12.637,55.084,12.637,55.084
		L12.637,55.084z"/>
	<path fill-rule="evenodd" clip-rule="evenodd" fill="#DCDDDE" d="M16.555,45.664c0,0-4.321-3.859-5.676-4.955
		c-1.354-1.094-2.247-1.584-2.247-1.584s-0.634,1.123-0.864,1.182c-0.23,0.057-1.21-0.865-3.515-3.229
		c-2.207-2.26-3.832-4.09-6.107-6.654c-2.15-2.422-9.536-10.285-9.536-10.285s-0.086-0.922-0.893-2.189
		c-0.807-1.266-4.235-4.838-4.235-4.838l0.029-0.635l4.839,5.127c0,0,2.737,2.65,4.177,3.314c1.44,0.662,2.967,1.613,3.371,2.045
		S7.307,33.594,8.114,34.4c0.807,0.807,1.094,1.729,1.066,2.16c-0.029,0.432,0.086,0.836,0.173,0.951
		C9.438,37.627,16.555,45.664,16.555,45.664L16.555,45.664z"/>
	<path fill="#DCDDDE" d="M19.32,35.207c0,0-4.725-4.092-5.214-4.465c-0.49-0.375-3.17-0.576-3.371-0.664
		c-0.201-0.086-1.325-1.123-1.325-1.123S-3.554,14.725-4.389,13.859c-0.835-0.863-1.21-1.152-1.296-1.439
		c-0.086-0.289-0.49-1.586-0.749-1.988c-0.259-0.404-4.984-4.235-4.984-4.235l-0.029-0.403c0,0,5.33,3.688,6.54,4.437
		s2.247,1.44,3.486,2.593s12.906,11.725,12.906,11.725s3.457,3.227,3.572,3.572s0.029,1.355,0.029,1.355s0.144,0.863,0.403,1.238
		c0.259,0.375,4.033,4.408,4.033,4.408L19.32,35.207L19.32,35.207z"/>
	<path fill-rule="evenodd" clip-rule="evenodd" fill="#DCDDDE" d="M23.324,25.988l-0.374-0.029c0,0-6.453-5.531-6.597-5.617
		c-0.145-0.088-1.096-0.088-1.096-0.088s-2.305-0.719-2.534-0.949c-0.231-0.23-6.829-7.49-8.615-9.363
		C2.324,8.069,1.373,6.974,0.624,6.11c-0.75-0.864-1.873-3.342-2.392-4.063S-7.27-4.088-7.27-4.088v-0.663
		c0,0,3.148,3.523,4.926,4.839C-1.875,0.435-1.105,0.483-1,0.489c0.5,0.031,1.099,0.873,1.192,0.953
		C0.595,1.788,6.27,6.888,7.883,8.242c1.613,1.354,2.391,2.161,2.391,2.161s6.021,5.936,6.223,6.166s-0.028,1.9,0.173,2.188
		c0.202,0.289,1.124,1.01,1.21,1.24C17.967,20.227,23.324,25.988,23.324,25.988L23.324,25.988z"/>
	<path fill-rule="evenodd" clip-rule="evenodd" fill="#DCDDDE" d="M-4.101-14.575v0.259l5.705,6.424c0,0,0.144,1.959,0.23,2.104
		c0.086,0.144,15.585,16.45,15.815,16.681s0.691,0.201,0.864,0.027c0.173-0.172,0.605-0.777,0.749-0.834
		c0.145-0.059,0.288,0.144,0.721,0.488c0.432,0.346,7.115,6.225,7.115,6.225l0.288-0.088c0,0-7.433-7.605-7.605-7.922
		s-0.069-0.672-0.173-1.21c-0.144-0.749,0.087-1.268-0.461-1.873C18.601,5.101,1.632-9.879,1.632-9.879L-4.101-14.575L-4.101-14.575
		z"/>
	<path fill-rule="evenodd" clip-rule="evenodd" fill="#DCDDDE" d="M27.56,4.727c-0.087-0.029-4.897-4.84-4.897-4.84
		S22.2-0.257,22.057-0.142s-0.489,0.778-0.69,0.807c-0.202,0.029-0.778-0.547-0.778-0.547s-3.399-3.543-7-7.259
		c-3.602-3.717-5.388-5.906-5.993-6.713S6.212-15.9,5.348-17.284c-0.864-1.383-5.3-6.251-5.3-6.251l-0.115-0.317
		c0,0,7.375,7,7.634,7.26c0.259,0.259,1.268,0.634,1.642,0.807c0.375,0.173,0.922,0.317,1.268,0.605
		c0.347,0.288,11.639,11.063,12.302,11.812c0.662,0.749,0.979,1.47,0.95,1.757c-0.028,0.288-0.346,1.094-0.346,1.094l4.609,5.272
		C27.991,4.755,27.646,4.755,27.56,4.727L27.56,4.727z"/>
	<path fill-rule="evenodd" clip-rule="evenodd" fill="#DCDDDE" d="M3.62-32.984v0.288c0,0,4.869,5.532,5.646,6.511
		c0.778,0.979,1.557,1.844,2.104,2.42s4.725,5.387,6.194,7.029c1.469,1.642,3.255,3.313,4.579,4.552
		c1.326,1.239,1.988,2.305,2.939,2.679c0.95,0.375,1.642,0.259,1.959,0.49c0.316,0.23,6.107,5.762,6.107,5.762h0.26l-6.886-7.087
		c0,0-0.691-0.807-0.778-1.124c-0.086-0.317,0.202-1.124,0.202-1.124s-5.79-5.819-8.325-8.095c-2.535-2.276-7.059-6.511-7.289-6.712
		s-0.576,0.058-0.922-0.029S3.62-32.984,3.62-32.984L3.62-32.984z"/>
	<path fill-rule="evenodd" clip-rule="evenodd" fill="#DCDDDE" d="M36.52-13.308l-0.433-0.058l-3.831-3.63
		c0,0-2.715-2.056-3.389-2.08c-0.674-0.024-2.057-1.263-2.057-1.263S12.78-35.289,12.607-35.548
		c-0.172-0.259-0.604-1.671-1.123-2.305s-1.815-2.218-1.815-2.218s3.169,2.535,4.552,3.572s3.717,3.054,4.726,4.033
		c1.008,0.979,11.062,10.775,11.062,10.775s1.902,1.786,2.074,2.16c0.174,0.375-0.114,1.585,0.404,2.104S36.52-13.308,36.52-13.308
		L36.52-13.308z"/>
	<path fill="#DCDDDE" d="M39.458-23.131c0,0-6.137-4.926-6.482-5.128s-0.951-0.288-1.268-0.432
		c-0.26-0.118-9.709-10.314-10.227-11.005c-0.392-0.522-5.301-7.059-5.301-7.059s8.671,7.807,9.852,8.873
		c1.182,1.066,7.059,6.338,7.231,6.511c0.173,0.172,0.403,0.72,0.548,0.95C33.955-30.189,39.458-23.131,39.458-23.131L39.458-23.131
		z"/>
	<path fill-rule="evenodd" clip-rule="evenodd" fill="#DCDDDE" d="M22.921-52.891c0,0,1.959,3.688,2.074,3.832
		s1.959,2.103,3.717,4.033c1.757,1.931,5.042,5.33,5.819,5.963s0.864,1.498,1.585,2.074c0.72,0.576,2.017,0.749,2.563,1.095
		c0.548,0.346,5.416,3.918,5.416,3.918s-4.725-4.753-4.926-5.128c-0.202-0.375-0.951-1.066-1.037-1.325
		c-0.087-0.259-0.288-0.721-0.49-0.979c-0.13-0.167-1.246-1.184-1.584-1.498c-0.339-0.313-0.77-0.329-1.066-0.605
		C34.157-42.289,22.921-52.891,22.921-52.891L22.921-52.891z"/>
	<path fill-rule="evenodd" clip-rule="evenodd" fill="#DCDDDE" d="M29.316-59.892l3.285,4.695c0,0,10.111,10.631,10.342,10.862
		c0.23,0.23,0.576,0,0.922,0.259c0.346,0.259,1.383,1.642,2.045,2.045c0.663,0.403,4.092,2.88,4.092,2.88s-5.474-5.829-5.561-6.194
		c-0.145-0.605-1.844-2.189-2.017-2.391s-0.691-0.375-0.894-0.547c-0.201-0.173-4.465-4.206-5.761-5.474
		C34.474-55.023,29.316-59.892,29.316-59.892L29.316-59.892z"/>
	<path fill-rule="evenodd" clip-rule="evenodd" fill="#DCDDDE" d="M57.535-44.523c0,0-5.435-4.744-6.038-5.197
		c-0.604-0.453-1.79-1.121-2.372-1.682c-0.582-0.561-9.971-10.833-10.833-11.869c-0.863-1.035-2.437-3.299-2.437-3.299
		s2.063,1.961,3.363,3.213c1.346,1.294,8.663,8.407,9.194,8.742c1.165,0.733,2.782,2.394,3.214,2.825
		c0.431,0.431,0.604,1.208,1.207,2.027S57.535-44.523,57.535-44.523L57.535-44.523z"/>
	<path fill-rule="evenodd" clip-rule="evenodd" fill="#DCDDDE" d="M44.704-70.862c0,0,3.214,4.27,3.968,5.262
		c0.755,0.992,2.934,3.278,3.709,4.119c0.776,0.841,2.868,2.962,3.623,3.739s2.113,2.243,2.438,2.501
		c0.322,0.259,0.374,0.129,1.884,1.186c1.509,1.057,6.469,5.154,6.469,5.154s-2.954-3.192-4.377-4.701
		c-1.424-1.51-1.704-2.113-2.027-2.588c-0.323-0.474-1.819-1.992-2.682-2.876c-0.863-0.884-1.747-1.617-2.243-2.049
		c-0.496-0.431-0.323,0.173-1.423-0.927c-1.1-1.1-4.335-4.356-5.456-5.391S44.704-70.862,44.704-70.862L44.704-70.862z"/>
	<path fill-rule="evenodd" clip-rule="evenodd" fill="#DCDDDE" d="M55.961-72.199c0.733,0.949,1.876,2.566,2.566,3.342
		s3.89,3.839,4.838,4.938c0.949,1.1,2.804,3.407,3.451,4.14c0.646,0.733,1.596,1.237,2.695,2.1c1.1,0.862,3.903,3.083,5.24,4.27
		s2.76,2.523,2.76,2.523s-3.515-4.184-4.464-5.392c-0.948-1.208-2.135-2.315-2.264-2.66c-0.13-0.345-0.13-0.625-0.346-0.906
		s-0.712-0.216-1.229-0.733c-0.518-0.517-5.435-5.607-6.47-6.556s-10.445-9.38-10.445-9.38S55.439-72.874,55.961-72.199
		L55.961-72.199z"/>
	<path fill-rule="evenodd" clip-rule="evenodd" fill="#DCDDDE" d="M90.738-50.95c0,0-7.914-7.297-8.884-8.203
		c-0.641-0.598-2.339-1.857-3.609-3.041s-0.914-1.029-1.229-1.315c-0.927-0.841-1.725-1.531-3.17-3.148
		c-1.444-1.617-2.717-3.299-3.752-4.464S63.172-79,63.172-79s5.521,5.378,6.599,6.37c1.078,0.992,3.299,2.674,4.204,3.429
		c0.906,0.754,9.303,8.69,9.41,8.841c0.108,0.151-0.064,1.035,0.108,1.251c0.173,0.215,5.692,5.636,5.692,5.636l0.108,0.798
		L90.738-50.95L90.738-50.95z"/>
	<path fill-rule="evenodd" clip-rule="evenodd" fill="#DCDDDE" d="M78.878-76.577c0,0,1.833,2.501,2.804,3.688
		s2.2,2.739,2.933,3.602c0.733,0.862,3.235,3.148,3.903,3.925s5.563,5.75,6.34,6.685s2.351,2.38,2.459,2.423
		c0.107,0.043,0.978,0.259,0.978,0.259l14.492,13.585c0,0-10.546-11.602-10.61-11.774c-0.064-0.172,0.496-1.143,0.496-1.143
		s-1.984-1.286-3.277-2.502c-1.294-1.215-7.448-7.167-8.699-8.396c-1.25-1.229-4.68-4.421-5.219-4.938
		c-0.539-0.518-1.336-0.647-3.472-2.502C79.87-75.52,78.878-76.577,78.878-76.577L78.878-76.577z"/>
	<path fill-rule="evenodd" clip-rule="evenodd" fill="#DCDDDE" d="M92.421-76.167l8.138,8.712c0,0-0.021,1.25,0.151,1.509
		c0.172,0.259,5.455,5.37,5.908,5.909c0.453,0.54,0.884,1.453,1.337,1.884s9.41,8.993,9.842,9.359
		c0.431,0.366,3.04,2.286,4.507,3.558s4.075,3.278,4.075,3.278s-6.556-7.181-6.749-7.397c-0.194-0.215,0.064-0.927-0.151-1.186
		s-10.747-10.229-11.092-10.596c-0.346-0.367-0.82-0.28-1.1-0.539C107.007-61.934,92.421-76.167,92.421-76.167L92.421-76.167z"/>
	<path fill-rule="evenodd" clip-rule="evenodd" fill="#DCDDDE" d="M117.667-62.732c0,0,2.954,3.523,4.012,4.493
		c1.057,0.971,2.997,2.912,2.997,2.912s-0.819-1.747-1.833-2.868c-0.508-0.562-1.531-1.69-2.825-2.79
		C119.524-61.404,117.667-62.732,117.667-62.732L117.667-62.732z"/>
	<path fill="#FFFFFF" d="M-79.008,24.01l-2.602,4.395c3.747,2.521,8.084,3.805,13.014,3.85c5.218-0.092,9.076-1.535,11.574-4.33
		c2.52-2.795,3.78-6.063,3.78-9.805c0-1.986-0.279-3.684-0.837-5.094c-0.58-1.432-1.395-2.668-2.445-3.707
		c-0.959-1.085-2.087-2.009-3.382-2.772c-1.228-0.739-2.556-1.42-3.985-2.044c-1.317-0.716-2.589-1.397-3.817-2.044
		c-1.295-0.624-2.467-1.294-3.517-2.009c-0.96-0.763-1.752-1.641-2.377-2.633c-0.648-0.924-0.971-2.057-0.971-3.396
		c0.044-2.979,1.004-5.15,2.88-6.513c1.787-1.386,3.751-2.079,5.895-2.079c2.232,0.046,4.152,0.405,5.76,1.076
		c1.563,0.671,3.003,1.527,4.32,2.568l2.278-4.431c-3.748-2.496-7.952-3.767-12.614-3.813c-4.26,0.047-7.684,1.236-10.271,3.569
		c-2.7,2.309-4.072,5.427-4.116,9.354c0,2.125,0.324,3.927,0.972,5.405c0.626,1.548,1.419,2.842,2.379,3.881
		c1.005,1.04,2.132,1.917,3.384,2.633c1.184,0.762,2.434,1.443,3.752,2.044c1.34,0.577,2.625,1.154,3.854,1.732
		c1.272,0.601,2.389,1.306,3.35,2.114c0.96,0.762,1.765,1.662,2.413,2.701c0.536,1.133,0.804,2.471,0.804,4.02
		c-0.045,2.701-0.906,4.861-2.582,6.479c-1.698,1.664-3.965,2.494-6.803,2.494c-1.876,0-3.687-0.404-5.429-1.215
		C-76.137,25.77-77.689,24.959-79.008,24.01L-79.008,24.01z"/>
	<path fill="#FFFFFF" d="M-22.864,3.682l3.586-2.922c-2.835-3.742-6.564-5.669-11.186-5.783c-4.755,0.115-8.573,1.982-11.453,5.602
		c-2.97,3.643-4.477,7.988-4.521,13.036c0.044,5.855,1.529,10.41,4.454,13.66c2.791,3.273,6.353,4.934,10.683,4.979
		c4.532,0,8.384-1.951,11.554-5.852l-2.817-3.34c-0.827,1.205-1.955,2.262-3.386,3.166c-1.363,0.951-2.828,1.426-4.393,1.426
		c-2.705,0-5.063-1.193-7.075-3.582c-2.056-2.229-3.106-5.359-3.151-9.395c0.045-4.988,1.14-8.769,3.286-11.344
		c2.012-2.504,4.348-3.757,7.008-3.757C-27.436-0.423-24.965,0.945-22.864,3.682L-22.864,3.682z"/>
	<path fill="#FFFFFF" d="M-12.543,31.262h5.41l0.301-24.737c3.389-4.348,6.811-6.522,10.267-6.522c4.084,0,6.171,1.874,6.261,5.621
		c-0.046,3.4-0.069,6.639-0.069,9.715L9.488,31.262h5.452l0.139-17.502c0-2.697,0.023-5.385,0.07-8.059
		c0-3.321-0.741-5.951-2.222-7.888c-1.543-1.891-4.282-2.836-8.219-2.836c-2.058,0-4.127,0.568-6.207,1.705
		C-3.6-2.203-5.356-0.622-6.765,1.425h-0.134l0.277-23.315h-5.655L-12.543,31.262L-12.543,31.262z"/>
	<polygon fill="#FFFFFF" points="26.174,31.262 31.618,31.262 32.018,-21.89 26.624,-21.89 26.174,31.262 	"/>
	<path fill-rule="evenodd" clip-rule="evenodd" fill="#FFFFFF" d="M45.92,13.615c0.045-4.866,1.209-8.499,3.492-10.898
		c2.171-2.33,4.577-3.495,7.219-3.495c2.91,0,5.328,1.165,7.253,3.495c1.925,2.399,2.91,6.032,2.955,10.898
		c-0.112,4.867-1.243,8.455-3.392,10.762c-2.149,2.422-4.601,3.633-7.354,3.633c-2.844,0-5.228-1.211-7.152-3.633
		C46.972,22.07,45.965,18.482,45.92,13.615L45.92,13.615z M40.051,13.615C40.184,25.787,45.51,32,56.027,32.254
		c5.448-0.137,9.591-2.119,12.426-5.947c2.837-3.688,4.255-7.918,4.255-12.691C72.529,1.444,67.204-4.769,56.731-5.023
		c-5.404,0.115-9.523,2.052-12.36,5.809C41.49,4.521,40.051,8.797,40.051,13.615L40.051,13.615z"/>
	<path fill="#FFFFFF" d="M78.125-4.031v4.246h5.826l-0.139,12.906c-0.047,4.613-0.07,7.992-0.07,10.137
		c-0.092,5.906,2.351,8.904,7.329,8.996c1.56-0.045,3.087-0.375,4.579-0.986c1.561-0.568,2.887-1.24,3.979-2.012l-1.778-3.684
		c-0.648,0.486-1.476,0.914-2.482,1.285c-1.051,0.531-2.058,0.797-3.02,0.797c-2.148,0-3.199-1.525-3.153-4.578
		c0-1.689,0.022-4.475,0.067-8.361l0.134-14.5h9.428v-4.246h-9.355l0.139-13.04H84.15l-0.133,13.04H78.125L78.125-4.031z"/>
	<path fill-rule="evenodd" clip-rule="evenodd" fill="#FFFFFF" d="M131.62,12.83v-1.141c0-4.857-1.025-8.839-3.076-11.947
		c-2.141-3.107-5.496-4.696-10.066-4.765c-4.659,0.115-8.404,1.982-11.236,5.602c-2.876,3.643-4.336,7.988-4.38,13.036
		c0.133,12.172,5.105,18.385,14.918,18.639c2.564-0.045,4.939-0.668,7.124-1.867c2.207-1.176,4.17-2.664,5.887-4.463l-2.645-3.043
		c-1.429,1.385-2.924,2.576-4.485,3.568c-1.54,1.041-3.292,1.561-5.256,1.561c-3.481-0.047-5.947-1.469-7.398-4.264
		c-1.563-2.703-2.322-5.949-2.276-9.738V12.83H131.62L131.62,12.83z M108.906,9.016c0.53-2.561,1.604-4.811,3.218-6.748
		c1.638-1.984,3.783-2.999,6.437-3.045c2.796,0.046,4.786,1.016,5.972,2.907c1.097,1.938,1.645,4.233,1.645,6.887H108.906
		L108.906,9.016z"/>
</g>
</svg>
